<svg width="32" height="32" xmlns="http://www.w3.org/2000/svg">

 <g>
  <title>background</title>
  <rect fill="none" id="canvas_background" height="402" width="582" y="-1" x="-1"/>
 </g>
 <g>
  <title>Layer 1</title>
  <path fill="#ffffff" id="svg_2" d="m27.615,5.598c-3.206,-3.208 -8.404,-3.211 -11.612,-0.006c-3.205,-3.208 -8.405,-3.21 -11.611,-0.005c-3.209,3.204 -3.212,8.403 -0.007,11.611l11.607,11.618l11.616,-11.606c3.209,-3.205 3.212,-8.404 0.007,-11.612z"/>
  <path fill="#ffffff" id="svg_3" d="m15.991,30.23l-12.313,-12.325c-1.739,-1.741 -2.696,-4.055 -2.695,-6.515c0.002,-2.46 0.962,-4.772 2.702,-6.511c1.738,-1.737 4.05,-2.694 6.509,-2.694c2.143,0 4.173,0.726 5.811,2.062c1.636,-1.332 3.663,-2.056 5.802,-2.056c2.462,0 4.776,0.959 6.517,2.701c1.739,1.741 2.696,4.054 2.695,6.515c-0.002,2.46 -0.962,4.773 -2.702,6.512l-12.326,12.311zm-5.798,-26.045c-1.925,0 -3.734,0.749 -5.095,2.109c-1.363,1.362 -2.114,3.172 -2.116,5.098c-0.001,1.926 0.748,3.737 2.109,5.1l10.901,10.91l10.908,-10.9c1.363,-1.361 2.114,-3.171 2.116,-5.098c0.001,-1.926 -0.748,-3.737 -2.109,-5.1c-1.363,-1.363 -3.175,-2.114 -5.103,-2.114c-1.925,0 -3.734,0.749 -5.096,2.109l-0.708,0.707l-0.706,-0.707c-1.36,-1.363 -3.173,-2.114 -5.101,-2.114z"/>
 </g>
</svg>