<?xml version="1.0" encoding="utf-8"?>
<!-- Generator: Adobe Illustrator 16.0.0, SVG Export Plug-In . SVG Version: 6.00 Build 0)  -->
<!DOCTYPE svg PUBLIC "-//W3C//DTD SVG 1.1//EN" "http://www.w3.org/Graphics/SVG/1.1/DTD/svg11.dtd">
<svg version="1.1" id="Capa_1" xmlns="http://www.w3.org/2000/svg" xmlns:xlink="http://www.w3.org/1999/xlink" x="0px" y="0px"
	 width="305px" height="305px" viewBox="0 0 305 305" enable-background="new 0 0 305 305" xml:space="preserve">
<g>
	<path d="M302.5,282.5c0,11-9,20-20,20h-260c-11,0-20-9-20-20v-260c0-11,9-20,20-20h260c11,0,20,9,20,20V282.5z"/>
	<path fill="none" stroke="#000000" stroke-width="5" stroke-miterlimit="10" d="M302.5,282.5c0,11-9,20-20,20h-260
		c-11,0-20-9-20-20v-260c0-11,9-20,20-20h260c11,0,20,9,20,20V282.5z"/>
</g>
<g>
	<path fill="#FFFFFF" d="M71.099,176.186c0-5.5,3.897-7.75,8.66-5l145.59,84.057c4.763,2.75,4.16,4.996-1.34,4.992l-61.669-0.047
		c-5.5-0.004-13.892-2.267-18.648-5.027l-63.945-37.111c-4.757-2.761-8.648-9.52-8.648-15.02L71.099,176.186z"/>
</g>
<g>
	<path fill="#FFFFFF" d="M79.545,114.973c-4.763-2.75-8.64-0.5-8.615,5l0.124,27.213c0.024,5.5,3.942,12.25,8.705,15l104.81,60.512
		c4.763,2.75,12.547,2.732,17.298-0.039l23.291-13.59c4.751-2.771,4.74-7.289-0.022-10.039L79.545,114.973z"/>
</g>
<g>
	<path fill="#FFFFFF" d="M120.271,82.46c-4.762-2.752-12.556-2.753-17.318-0.003L79.545,95.972c-4.763,2.75-4.763,7.25,0.002,9.998
		l145.8,84.123c4.765,2.748,8.673,0.497,8.685-5.003l0.063-26.842c0.012-5.5-3.874-12.251-8.636-15.003L120.271,82.46z"/>
</g>
<g>
	<path fill="#FFFFFF" d="M160.791,49.748c-4.767-2.745-13.166-4.98-18.666-4.968l-61.241,0.139c-5.5,0.012-6.103,2.272-1.34,5.022
		l145.59,84.057c4.763,2.75,8.676,0.5,8.695-5l0.094-27.119c0.02-5.5-3.864-12.246-8.631-14.99L160.791,49.748z"/>
</g>
</svg>
