<svg width="32" height="32" xmlns="http://www.w3.org/2000/svg">

 <g>
  <title>background</title>
  <rect fill="none" id="canvas_background" height="402" width="582" y="-1" x="-1"/>
 </g>
 <g>
  <title>Layer 1</title>
  <path fill="#ffffff" stroke="#ffffff" id="svg_3" d="m28,5c0,-0.552 -0.447,-1 -1,-1l-14,0c-0.552,0 -1,0.448 -1,1l0,2c0,0.552 0.448,1 1,1l14,0c0.553,0 1,-0.448 1,-1l0,-2z"/>
  <path fill="#ffffff" stroke="#ffffff" id="svg_4" d="m27,9l-14,0c-1.103,0 -2,-0.897 -2,-2l0,-2c0,-1.103 0.897,-2 2,-2l14,0c1.103,0 2,0.897 2,2l0,2c0,1.103 -0.897,2 -2,2zm-14,-4l0,2l14,0l0,-2l-14,0z"/>
  <path fill="#ffffff" stroke="#ffffff" id="svg_6" d="m28,15c0,-0.552 -0.447,-1 -1,-1l-14,0c-0.552,0 -1,0.448 -1,1l0,2c0,0.552 0.448,1 1,1l14,0c0.553,0 1,-0.448 1,-1l0,-2z"/>
  <path fill="#ffffff" stroke="#ffffff" id="svg_7" d="m27,19l-14,0c-1.103,0 -2,-0.897 -2,-2l0,-2c0,-1.103 0.897,-2 2,-2l14,0c1.103,0 2,0.897 2,2l0,2c0,1.103 -0.897,2 -2,2zm-14,-4l0,2l14,0l0,-2l-14,0z"/>
  <path fill="#ffffff" stroke="#ffffff" id="svg_9" d="m28,25c0,-0.552 -0.447,-1 -1,-1l-14,0c-0.552,0 -1,0.448 -1,1l0,2c0,0.552 0.448,1 1,1l14,0c0.553,0 1,-0.448 1,-1l0,-2z"/>
  <path fill="#ffffff" stroke="#ffffff" id="svg_10" d="m27,29l-14,0c-1.103,0 -2,-0.897 -2,-2l0,-2c0,-1.103 0.897,-2 2,-2l14,0c1.103,0 2,0.897 2,2l0,2c0,1.103 -0.897,2 -2,2zm-14,-4l0,2l14,0l0,-2l-14,0z"/>
  <path fill="#ffffff" stroke="#ffffff" id="svg_12" d="m8,5c0,-0.552 -0.448,-1 -1,-1l-2,0c-0.552,0 -1,0.448 -1,1l0,2c0,0.552 0.448,1 1,1l2,0c0.552,0 1,-0.448 1,-1l0,-2z"/>
  <path fill="#ffffff" stroke="#ffffff" id="svg_13" d="m7,9l-2,0c-1.103,0 -2,-0.897 -2,-2l0,-2c0,-1.103 0.897,-2 2,-2l2,0c1.103,0 2,0.897 2,2l0,2c0,1.103 -0.897,2 -2,2zm-2,-4l0,2l2.001,0l-0.001,-2l-2,0z"/>
  <path fill="#ffffff" stroke="#ffffff" id="svg_15" d="m8,15c0,-0.552 -0.448,-1 -1,-1l-2,0c-0.552,0 -1,0.448 -1,1l0,2c0,0.552 0.448,1 1,1l2,0c0.552,0 1,-0.448 1,-1l0,-2z"/>
  <path fill="#ffffff" stroke="#ffffff" id="svg_16" d="m7,19l-2,0c-1.103,0 -2,-0.897 -2,-2l0,-2c0,-1.103 0.897,-2 2,-2l2,0c1.103,0 2,0.897 2,2l0,2c0,1.103 -0.897,2 -2,2zm-2,-4l0,2l2.001,0l-0.001,-2l-2,0z"/>
  <path fill="#ffffff" stroke="#ffffff" id="svg_18" d="m8,25c0,-0.552 -0.448,-1 -1,-1l-2,0c-0.552,0 -1,0.448 -1,1l0,2c0,0.552 0.448,1 1,1l2,0c0.552,0 1,-0.448 1,-1l0,-2z"/>
  <path fill="#ffffff" stroke="#ffffff" id="svg_19" d="m7,29l-2,0c-1.103,0 -2,-0.897 -2,-2l0,-2c0,-1.103 0.897,-2 2,-2l2,0c1.103,0 2,0.897 2,2l0,2c0,1.103 -0.897,2 -2,2zm-2,-4l0,2l2.001,0l-0.001,-2l-2,0z"/>
 </g>
</svg>